<?xml version="1.0" encoding="UTF-8"?>
<!DOCTYPE svg PUBLIC "-//W3C//DTD SVG 1.1//EN" "http://www.w3.org/Graphics/SVG/1.1/DTD/svg11.dtd">
<!-- Creator: CorelDRAW (Evaluation Version) -->
<svg xmlns="http://www.w3.org/2000/svg" xml:space="preserve" width="5.34909in" height="2.08246in" version="1.1" style="shape-rendering:geometricPrecision; text-rendering:geometricPrecision; image-rendering:optimizeQuality; fill-rule:evenodd; clip-rule:evenodd"
viewBox="0 0 1230.34 478.98"
 xmlns:xlink="http://www.w3.org/1999/xlink"
 xmlns:xodm="http://www.corel.com/coreldraw/odm/2003">
 <defs>
  <style type="text/css">
   <![CDATA[
    .fil2 {fill:#972601}
    .fil0 {fill:#B23E09}
    .fil1 {fill:#B43E09}
   ]]>
  </style>
 </defs>
 <g id="Layer_x0020_1">
  <metadata id="CorelCorpID_0Corel-Layer"/>
  <path class="fil0" d="M63.42 132.8c0.34,-44.78 13.94,-90.14 64.61,-95.13 52.14,-5.13 78.29,34.85 80.61,82.41 6.13,125.52 -146.07,125.41 -145.22,12.72zm-63.41 1.82c0.22,34.15 18.59,67.15 44.57,87.22 86.54,66.83 234.35,19.19 226.45,-103.63 -10.28,-159.95 -272.16,-160.53 -271.02,16.41z"/>
  <path class="fil0" d="M405.83 74.72c6.28,7.54 26.91,64.56 32.06,78.35l-62.12 -0.34 30.06 -78.02zm-45.86 -70.22c19.64,30.6 20.1,27.25 5,63.5l-49.97 124.51c-4.26,9.89 -8.66,20.06 -14.47,29.13 -4.96,7.75 -15.78,17.6 -16.29,25.67l83.1 -0.82c-0.14,-9.72 -26.8,-14.75 -5.85,-58.52l89.83 0c25.24,46.87 2.99,43.29 -0.5,59.36l97.98 -0.88c0.28,-6.45 -3.13,-6.98 -7.6,-12.46 -8.65,-10.6 -16.81,-31.4 -21.79,-43.64 -8.23,-20.19 -15.83,-40.92 -23.99,-61.34 -7.86,-19.68 -16.63,-41.41 -23.91,-61.51 -5.67,-15.67 -20.46,-48.68 -22.66,-62.61l-88.88 -0.38z"/>
  <path class="fil0" d="M1047.91 228.92c11.28,10.3 50.82,20.55 66.78,22.2 118.87,12.35 137.29,-91.06 95.02,-124.12 -45.21,-35.37 -112.04,-35.28 -105.59,-68.49 5.11,-26.32 43.45,-23.15 63.39,-16.52 26.44,8.79 42.69,33.65 51.96,36.43l-0.26 -64.55c-10.58,-1.24 -25.09,-6.7 -36.25,-9.28 -62.91,-14.56 -144.1,7.68 -135.81,75.6 7.72,63.26 112.65,66.7 124.99,95.21 14.99,34.63 -38.52,50.66 -77.69,30.35 -11.73,-6.08 -15.13,-12.73 -23.69,-19.9 -7.78,-6.53 -15.91,-20.61 -21.39,-22.69 -4.42,7.96 -2.21,53.52 -1.46,65.76z"/>
  <path class="fil1" d="M706.15 230.77c25.63,8.92 35.92,16.07 65.25,19.85 96.23,12.43 145.01,-71.95 95.65,-120.9 -31.91,-31.64 -101.84,-36.5 -105.01,-64.21 -3.3,-28.82 37.51,-30.65 57.26,-26.1 31.51,7.25 38.6,33.11 48.61,32.04 4.7,-11.32 1.22,-43.3 1.67,-57.49 -28.1,-6.59 -41.11,-14.56 -72.83,-13.76 -96.98,2.45 -120.28,91.4 -53.78,130.09 25.85,15.04 75.93,28.14 84.87,45.87 11.51,22.84 -16.52,56.53 -75.27,26.3 -30.3,-15.59 -34.52,-36.37 -47.23,-39.32l0.8 67.62z"/>
  <path class="fil0" d="M706.38 301.05c26.61,35.89 20.44,17.68 20.6,84.33 0.26,105.46 -6.34,61.14 -14.25,88.87l56.64 -0.1c-10.04,-17.76 -14.48,-7.52 -14.32,-50.61 0.08,-21.29 0.22,-42.66 -0.14,-63.93 1.09,1.22 85.4,107.08 88.96,114.63l35.33 0.18c-3.99,-24.05 -1.51,-66.68 -1.56,-92.68 -0.03,-15.11 -0.71,-32.41 0.2,-47.29 1.37,-22.39 7.95,-18.72 14.76,-33.14l-57.55 0.23c2.62,8.27 8.07,10.79 11.73,19.26 5.24,12.13 3.26,72.13 3.9,90.89 -9.85,-8.34 -53,-68.32 -65.63,-83.6 -28.45,-34.45 -4.69,-26.67 -78.66,-27.04z"/>
  <path class="fil0" d="M59.71 447.08l-0.03 -117.9c46,-2.67 77.86,5.26 78.04,58.01 0.17,50.61 -31.26,65.71 -78.01,59.89zm-53.94 -145.76c2.88,10.25 4.97,5.78 10.01,16.56 3.3,7.06 3.9,14.29 4.06,22.06 0.47,23.03 3.48,105.85 -5.73,120.44 -2.21,3.5 -8.12,10.91 -8.85,13.12 14.56,2.55 48.21,0.78 64.68,0.69 20.07,-0.11 38.95,1.04 57.79,-7.32 76.97,-34.16 67.47,-133.25 1.62,-157.28 -32.59,-11.89 -87.9,-7.91 -123.57,-8.28z"/>
  <path class="fil0" d="M574.67 4.56c13.89,19.39 20.32,24.39 20.64,51.92l0.1 141.74c-0.78,34.1 -20.11,42.29 -20.8,46.83 5.86,3.99 11.71,2.11 24.11,2.16l72.41 -0.2c-0.77,-14.45 -19.98,-7.69 -19.77,-50.61l0.11 -141.74c0.08,-38.75 12.97,-33.05 19.95,-49.79l-96.75 -0.3z"/>
  <path class="fil1" d="M915.25 4.62c7.17,17.7 10.2,7.13 16.36,22.38 7.39,18.27 4.95,144.62 4.46,171.22 -0.61,33.38 -19.97,38.92 -20.47,48.95l95.54 0.05c-1.23,-13.17 -18.85,-7.75 -19.34,-50.8l-0.19 -141.75c0.32,-41.38 13.61,-34.95 19.44,-49.74l-95.8 -0.3z"/>
  <path class="fil0" d="M1180.21 374.15l-39.78 1.46 -0.33 -47.37c10.49,0.05 41.53,-1.61 49.19,3.08 15.56,3.15 18.23,11.3 27.45,15.65l-1.11 -44.37c-13.2,-4.3 -107.57,-0.48 -130.41,-1.32 6,15.38 14.66,10.69 14.91,36.82l-0.08 101.93c-0.54,22.02 -13.12,23.5 -14.72,34.21l134.77 -0.01c1.14,-11.99 8.85,-42.25 3.35,-50.64 -11.45,6.14 -17.31,15.42 -33.29,20.79 -15.07,5.07 -34.11,2.58 -50.12,3.48l0.11 -47.84c45.05,-0.05 25.49,1 57.19,4.88l-1.03 -35.41 -16.12 4.67z"/>
  <path class="fil0" d="M303.97 374.36l-38.6 1.05 -0.63 -46.89c12.12,-0.55 36.95,-1.23 47.95,2.23 16.38,3.97 20.11,14.55 28.06,16.21l-1.11 -45.64 -131.11 -0.11c8.46,18.28 15,11.12 15.47,38.7l-0.25 100.68c-2.33,21.64 -14.16,23.37 -17.2,33.65l135.42 -0.48c1.48,-10.13 7.72,-43.12 3.61,-50.02 -4.07,1.07 -20.95,15.81 -31.87,20 -14.31,5.48 -33.93,3.52 -49.12,3.86l-0.13 -47.6c10.28,0.02 20.6,-0.01 30.87,0.3 11.08,0.33 15.15,2.88 25.32,4.23l-0.78 -34.78 -15.9 4.61z"/>
  <path class="fil0" d="M923.92 465.49c29.86,13.7 70.28,19.87 100.78,4.41 29.84,-15.12 41.33,-51.64 16.17,-77.84 -24.12,-25.13 -71.61,-25.95 -73.54,-48.53 -1.8,-21.08 24.89,-21.33 39.75,-17.62 13.72,3.43 32.3,22.08 34.87,21.54 4.54,-9.31 2.05,-30.03 1.35,-41.56 -109.46,-39.83 -149.96,53.68 -94.35,85.33 14.78,8.41 55.08,20.08 61.81,30.94 13.43,21.7 -18.94,40.34 -53.25,22.29 -5.05,-2.65 -14.34,-9.19 -18.14,-12.71 -7.26,-6.72 -6.24,-13.34 -15.45,-13.99l-0.01 47.73z"/>
  <path class="fil0" d="M642.25 446.01c-2.95,4.88 5.3,1.21 -5.3,4.01 -2.15,0.57 -35.46,-2.76 -41.38,0.99l-0.57 -50.86c0.24,6.54 -2.6,44.27 2.65,48.2l-0.06 -48.62c10.76,0.45 21.45,-0.07 32.09,0.47 10.34,0.52 14.89,3 24.71,4.8l-0.81 -35.26 -22.94 5.32 -32.55 0.21 -0.08 -47.16c25.11,0.91 37.31,-2.9 60.87,7.99 7.61,4.78 9.35,9.42 15.27,11.23l-1.5 -45.98 -128.94 0.14c3.52,13.5 14.5,10.39 14.54,36.57l-0.09 101.58c-0.82,24.71 -11.5,22.13 -15.16,34.71l133.27 -0.57c2.15,-10.69 6.3,-39.49 5.16,-49.4 -5.81,0.21 -13,8.49 -18.89,12.13 -8.62,5.33 -12.5,6.2 -20.3,9.51z"/>
  <path class="fil0" d="M476.2 374.43l-40.85 2.09 0.03 -48.19c16.34,0.36 33.19,-1.35 49.18,2.51 11.92,3.24 22.68,15.03 27.07,15.76l-0.23 -45.34 -131.06 0.35c3.35,10.06 13.77,10.27 14.57,36.47l0.04 101.92c-0.58,22.21 -10.43,22.16 -14.04,34.23l68.81 0.07c-3.6,-10 -12.93,-10.47 -14.41,-28.91 -1.04,-12.9 -0.31,-30.58 0,-43.82 68.7,-0.23 35.8,2.94 56.33,10.05l-0.87 -41.85 -14.56 4.65z"/>
  <path class="fil2" d="M642.25 446.01l-44.6 2.34c-5.25,-3.93 -2.41,-41.65 -2.65,-48.2l0.57 50.86c5.92,-3.75 39.24,-0.42 41.38,-0.99 10.59,-2.8 2.35,0.86 5.3,-4.01z"/>
 </g>
</svg>
