<?xml version="1.0" encoding="UTF-8"?>
<!DOCTYPE svg PUBLIC "-//W3C//DTD SVG 1.1//EN" "http://www.w3.org/Graphics/SVG/1.1/DTD/svg11.dtd">
<!-- Creator: CorelDRAW (Evaluation Version) -->
<svg xmlns="http://www.w3.org/2000/svg" xml:space="preserve" width="3.36113in" height="4.12421in" version="1.1" style="shape-rendering:geometricPrecision; text-rendering:geometricPrecision; image-rendering:optimizeQuality; fill-rule:evenodd; clip-rule:evenodd"
viewBox="0 0 447.32 548.87"
 xmlns:xlink="http://www.w3.org/1999/xlink"
 xmlns:xodm="http://www.corel.com/coreldraw/odm/2003">
 <defs>
  <style type="text/css">
   <![CDATA[
    .fil4 {fill:#612713}
    .fil5 {fill:#754E33}
    .fil0 {fill:#B23E09}
    .fil3 {fill:#DB8D0B}
    .fil1 {fill:#E39512}
    .fil2 {fill:#E59A11}
    .fil6 {fill:#FCA836}
   ]]>
  </style>
 </defs>
 <g id="Layer_x0020_1">
  <metadata id="CorelCorpID_0Corel-Layer"/>
  <g id="_413899288">
   <path class="fil0" d="M310.16 413.12c-1.88,0.05 -28.85,21.59 -31.25,23.73l-16.69 11.64c-1.94,1.24 -2.96,2.86 -5.04,4.43l-21.65 13.98c-4.04,2.33 -7.62,5.4 -11.64,7.87 -8.5,-3 -42.81,-29.3 -52.86,-35.94l-25.44 -18.81c-1.8,-1.37 -3.25,-2.99 -5.68,-4.87l-12.83 -10.19c-2.07,-1.64 -3.04,-3.34 -5.86,-5.65l0.53 -21.41 113.23 0.1c1.8,4.12 6.05,9.31 10.47,10.55 5.87,1.64 11.87,1.25 17.35,-1.43 3.68,-2.28 6.95,-5.47 8.43,-9.39 3.34,-8.89 0.65,-9.24 -0.26,-17.04 8.2,-6.13 10.04,-11.77 19.15,-17.66l30.51 0.15c1.62,5.45 4.74,50.45 3.95,56.41 -4.24,4.91 -11.69,8.3 -14.4,13.53zm-51.65 -62.07c-9.76,-4.19 -22.32,3.05 -24.98,11.49l-109.92 -0.17c-0.51,-3.97 1.66,-35.91 2.83,-39.41l98.67 -0.11 29.49 -28.8 62.3 -0.5 2.52 34.89c-8.73,1.19 -33.69,-1.92 -39.3,2.22 -4.44,3.27 -2.22,2.91 -4.75,5.82l-16.86 14.58zm-145.03 -43.47c-4.58,4.02 -2.61,8.46 -10.02,12.6 -25.07,14.01 -41.7,-6.97 -41.13,-22.59 0.46,-12.65 10.45,-23.72 22.8,-24.96 17.42,-1.76 23.14,8.75 29.42,19.49l74.65 -0.07 27.99 -37.97c3.58,-3.03 21.07,2.16 24.28,-14.7l72.52 -0.28 1.49 39.88c-15.05,-1.82 -41.45,-0.62 -57.94,-0.37 -7.45,0.11 -10.64,-0.49 -19.41,9.1 -3.42,3.74 -1.28,3.7 -6.77,7.92 -4.49,3.45 -3.68,4.19 -7.3,7.42 -2.76,2.46 -4.08,4.75 -8.53,4.77l-102.05 -0.23zm21.93 -118.59c5.6,-2.06 75.01,-0.51 87.43,-0.72 17.28,-0.29 76.33,0.77 87.63,-0.72l0.96 24.96 29.87 0.33c5.51,-29.08 53.04,-21.81 50.07,10.16 -1.88,20.27 -27.11,31.11 -43.52,16.82 -5.94,-5.17 -5.02,-9.7 -8.3,-15.23l-99.96 -0.55c-0,0 -10.63,-14.44 -25.54,-6.72 -2.86,1.48 -7.08,6.83 -8.14,9.67 -2.52,6.78 -1.08,9.68 0.74,16.2l-26.85 34.13 -50.77 0.27 6.38 -88.6zm-21.84 -23.19c-1.93,-5.98 -0.86,-49.98 -0.73,-59.43l43.91 -0.4 0.01 29.95c8,-0.39 30.33,1.19 36.28,-0.91l-0.05 -28.13c3.75,-1.34 56.23,-1.1 62.9,-0.47l0.54 29.41 34.2 -0.41 -0.42 -29.27 43.98 0.07 -0.54 59.21c-1.78,1.8 -5.58,4.3 -8.06,5.72 -5.54,3.19 -5.61,2.12 -12.33,2.06l-135.63 -0c-15.57,-0.09 -39.29,1.45 -53.74,-0.2 -4.51,-3.96 -6.32,-4.24 -10.32,-7.2zm208.59 274.34l2.44 -3.01c0.13,-2.52 4.25,-3.96 6.74,-5.81 2.47,-1.84 4.4,-4.64 6.65,-7.09 6.55,-7.14 3.22,-5.25 9.64,-9.22 3.12,-1.93 1.17,-1.31 3.64,-3.66 3.39,-3.22 8.05,-10.66 11.72,-14.58 20.22,-21.59 37.32,-61.15 41.53,-90.88 4.42,-31.26 1.48,-70.39 1.77,-102.92 0.3,-32.84 1.22,-68.83 0.03,-101.42 -7.08,-1.99 -17.06,-2.93 -24.74,-4.67 -7.73,-1.75 -16.47,-3.91 -24.2,-5.35 -26.59,-4.94 -64.35,-17.48 -90.24,-27.42 -4.84,-1.86 -42.35,-17.14 -42.41,-17.14 -0.35,-0.01 -38.48,15.26 -41.45,16.55 -6.66,2.9 -14.59,5.17 -21.73,7.76 -44.46,16.1 -74.43,21.29 -120.04,29.88 0.53,47.29 0.59,96.58 -0.19,143.87 -1.03,62.53 0.54,83.17 30.43,135.29l11.09 15.16c2.55,2.47 1.86,2.36 4.03,5.55l57.66 52.73c12.39,9.89 43.07,30.82 55.59,36.88 35.37,17.1 12.62,17.46 49.63,-1.04 7.78,-3.89 17.75,-10.78 25.25,-15.7 8.04,-5.27 15.94,-10.27 23.46,-16.56l23.69 -17.21z"/>
   <path class="fil0" d="M26.73 88.69c17.75,-3.6 35.76,-5.64 53.59,-10.28 17.3,-4.49 33.57,-8.37 50.67,-13.53 48.11,-14.51 52.51,-18.88 92.92,-35.72 48.98,25.33 145.67,53.69 197.77,58.75l-0.1 79.31c0.41,26.06 0.26,52.76 0.12,78.85 -0.29,53.15 0.64,84.04 -26.33,131.56l-15.94 24.07c-1.63,3.14 -2.55,2.23 -5.06,5.29 -1.42,1.73 -2.4,3.95 -3.76,5.8l-8.75 10.14c-9.96,11.97 -19.32,17.2 -25.86,24.6 -2.43,2.75 -3.77,1.99 -5.75,3.81 -2.67,2.47 -0.07,1.15 -4.76,4.7 -2.91,2.2 -1.03,1.66 -5.1,4.29 -2.02,1.31 -3.95,3.25 -5.77,4.79l-17.11 12.17c-3.07,1.91 -9.41,5.83 -11.91,8.15 -4.97,4.61 -58.06,35.83 -61.67,35.8 -2.55,-0.02 -48.42,-27 -51.63,-29.09 -15.94,-10.39 -31.44,-21.94 -46.75,-33.09 -3.69,-2.68 -6.76,-6.29 -10.96,-9.05 -4.61,-3.03 -2.07,-3.01 -5.01,-5.49 -1.05,-0.88 -4.65,-2.39 -5.92,-3.58 -1.64,-1.54 -2.45,-3.98 -4.51,-6 -5.96,-5.82 -20.81,-18.74 -24.54,-24.89 -1.97,-3.24 -6.31,-8.35 -8.92,-11.04l-14.89 -23.93c-26.15,-46.85 -24.67,-79.64 -24.14,-132.18 0.51,-51.05 -1.48,-103.5 0.09,-154.24zm44.05 352.54l1.9 2.29c3.29,5.81 26.69,25.28 33.25,30.93 11.39,9.81 24.51,18.32 36.74,27.4 14.11,10.48 65.86,42.07 81.23,47.03 14.26,-5.89 55.75,-28.47 66.99,-37.8l0.66 -1.83 2.05 -0.06c16.91,-6.74 48.19,-35.71 63.71,-48.65 19.64,-16.39 38.41,-37.69 52.4,-59.11 41.27,-63.18 37.61,-114.98 37.46,-186.88 -0.05,-24.89 0.03,-49.76 -0.04,-74.65 -0.07,-24.24 -1.07,-51.32 0.13,-75.26 -14.75,-0.18 -46.56,-7.01 -61.87,-10.52 -51.43,-11.78 -89.4,-23.04 -137.8,-43.07 -7.45,-3.08 -18.03,-9.03 -24.87,-11.05 -28.93,16.5 -71.11,30.52 -104.19,39.74 -19.17,5.34 -37.5,10.09 -56.85,14.67 -9.42,2.23 -57.46,9.4 -60.44,10.94 -2.06,4.03 -1.04,200.88 -0.4,222.52 0.92,31.21 9.28,61.41 22.87,89.02 8.58,17.44 33.11,54.73 47.09,64.34z"/>
   <path class="fil1" d="M324.6 437.13l-2.44 3.01 -23.69 17.21c-7.52,6.29 -15.42,11.29 -23.46,16.56 -7.5,4.92 -17.48,11.81 -25.25,15.7 -37.01,18.5 -14.26,18.14 -49.63,1.04 -12.52,-6.05 -43.2,-26.98 -55.59,-36.88l-57.66 -52.73c-2.17,-3.19 -1.48,-3.08 -4.03,-5.55l-11.09 -15.16c-29.88,-52.12 -31.46,-72.76 -30.43,-135.29 0.78,-47.29 0.72,-96.58 0.19,-143.87 45.61,-8.59 75.58,-13.78 120.04,-29.88 7.14,-2.59 15.07,-4.86 21.73,-7.76 2.97,-1.29 41.1,-16.56 41.45,-16.55 0.06,0 37.57,15.29 42.41,17.14 25.89,9.94 63.65,22.48 90.24,27.42 7.73,1.44 16.47,3.6 24.2,5.35 7.68,1.74 17.66,2.69 24.74,4.67 1.19,32.59 0.26,68.58 -0.03,101.42 -0.29,32.53 2.65,71.65 -1.77,102.92 -4.21,29.73 -21.31,69.29 -41.53,90.88 -3.67,3.92 -8.33,11.36 -11.72,14.58 -2.48,2.35 -0.52,1.73 -3.64,3.66 -6.42,3.97 -3.08,2.08 -9.64,9.22 -2.25,2.45 -4.18,5.25 -6.65,7.09 -2.48,1.85 -6.61,3.29 -6.74,5.81zm-297.87 -348.44c-1.57,50.75 0.43,103.19 -0.09,154.24 -0.53,52.54 -2.02,85.33 24.14,132.18l14.89 23.93c2.62,2.69 6.96,7.8 8.92,11.04 3.73,6.14 18.58,19.06 24.54,24.89 2.06,2.01 2.87,4.46 4.51,6 1.27,1.19 4.87,2.69 5.92,3.58 2.94,2.48 0.4,2.45 5.01,5.49 4.2,2.76 7.28,6.37 10.96,9.05 15.31,11.15 30.81,22.7 46.75,33.09 3.22,2.1 49.09,29.07 51.63,29.09 3.61,0.03 56.7,-31.19 61.67,-35.8 2.51,-2.32 8.84,-6.25 11.91,-8.15l17.11 -12.17c1.83,-1.54 3.76,-3.49 5.77,-4.79 4.07,-2.64 2.2,-2.09 5.1,-4.29 4.69,-3.55 2.09,-2.23 4.76,-4.7 1.98,-1.83 3.32,-1.06 5.75,-3.81 6.54,-7.4 15.91,-12.63 25.86,-24.6l8.75 -10.14c1.36,-1.85 2.34,-4.07 3.76,-5.8 2.51,-3.06 3.42,-2.15 5.06,-5.29l15.94 -24.07c26.96,-47.52 26.04,-78.41 26.33,-131.56 0.14,-26.1 0.3,-52.8 -0.12,-78.85l0.1 -79.31c-52.09,-5.06 -148.79,-33.42 -197.77,-58.75 -40.41,16.85 -44.81,21.21 -92.92,35.72 -17.1,5.16 -33.37,9.03 -50.67,13.53 -17.83,4.63 -35.84,6.67 -53.59,10.28z"/>
   <path class="fil2" d="M113.57 165.79c4,2.96 5.81,3.24 10.32,7.2 14.45,1.65 38.17,0.11 53.74,0.2l135.63 0c6.72,0.06 6.8,1.13 12.33,-2.06 2.48,-1.43 6.27,-3.92 8.06,-5.72l0.54 -59.21 -43.98 -0.07 0.42 29.27 -34.2 0.41 -0.54 -29.41c-6.66,-0.63 -59.15,-0.87 -62.9,0.47l0.05 28.13c-5.95,2.1 -28.28,0.52 -36.28,0.91l-0.01 -29.95 -43.91 0.4c-0.13,9.45 -1.2,53.45 0.73,59.43z"/>
   <path class="fil2" d="M375.33 229.47c-6.67,2.78 -12.39,6.26 -18.62,-0.54 -10.84,-11.81 4.9,-28.6 17.89,-16.83 6.25,5.66 2.54,10.96 0.73,17.37zm-246.31 48.11l50.77 -0.27 26.85 -34.13c-1.83,-6.52 -3.26,-9.42 -0.74,-16.2 1.05,-2.84 5.28,-8.19 8.14,-9.67 14.91,-7.72 25.54,6.72 25.54,6.72l99.96 0.55c3.29,5.53 2.37,10.06 8.3,15.23 16.4,14.29 41.64,3.45 43.52,-16.82 2.96,-31.98 -44.56,-39.25 -50.07,-10.16l-29.87 -0.33 -0.96 -24.96c-11.29,1.49 -70.35,0.43 -87.63,0.72 -12.42,0.21 -81.83,-1.34 -87.43,0.72l-6.38 88.6z"/>
   <path class="fil1" d="M275.37 336.47c2.52,-2.91 0.31,-2.55 4.75,-5.82 5.62,-4.14 30.58,-1.03 39.3,-2.22l-2.52 -34.89 -62.3 0.5 -29.49 28.8 -98.67 0.11c-1.17,3.49 -3.34,35.44 -2.83,39.41l109.92 0.17c2.66,-8.44 15.22,-15.68 24.98,-11.49l16.86 -14.58z"/>
   <path class="fil2" d="M85.4 286.62c15.62,-5.08 21.7,20.33 6.56,24.21 -16.22,4.16 -22.99,-18.87 -6.56,-24.21zm130.13 21.19c4.45,-0.02 5.77,-2.31 8.53,-4.77 3.63,-3.23 2.81,-3.97 7.3,-7.42 5.49,-4.22 3.35,-4.18 6.77,-7.92 8.77,-9.59 11.96,-8.99 19.41,-9.1 16.5,-0.25 42.89,-1.45 57.94,0.37l-1.49 -39.88 -72.52 0.28c-3.21,16.86 -20.71,11.67 -24.28,14.7l-27.99 37.97 -74.65 0.07c-6.27,-10.74 -12,-21.25 -29.42,-19.49 -12.34,1.25 -22.34,12.32 -22.8,24.96 -0.57,15.62 16.06,36.6 41.13,22.59 7.41,-4.14 5.44,-8.58 10.02,-12.6l102.05 0.23z"/>
   <path class="fil3" d="M324.56 399.59c0.79,-5.96 -2.33,-50.96 -3.95,-56.41l-30.51 -0.15c-9.11,5.9 -10.95,11.53 -19.15,17.66 0.91,7.8 3.61,8.15 0.26,17.04 -1.47,3.92 -4.74,7.11 -8.43,9.39 -5.47,2.68 -11.48,3.07 -17.35,1.43 -4.42,-1.24 -8.68,-6.42 -10.47,-10.55l-113.23 -0.1 -0.53 21.41c2.82,2.31 3.79,4.02 5.86,5.65l12.83 10.19c2.43,1.88 3.89,3.5 5.68,4.87l25.44 18.81c10.06,6.64 44.36,32.94 52.86,35.94 4.03,-2.47 7.6,-5.54 11.64,-7.87l21.65 -13.98c2.09,-1.57 3.1,-3.19 5.04,-4.43l16.69 -11.64c12.35,-11.05 35.22,-25.18 45.65,-37.26z"/>
   <path class="fil0" d="M85.4 286.62c-16.43,5.34 -9.66,28.37 6.56,24.21 15.14,-3.88 9.06,-29.29 -6.56,-24.21z"/>
   <path class="fil0" d="M375.33 229.47c1.81,-6.4 5.52,-11.7 -0.73,-17.37 -12.99,-11.77 -28.73,5.02 -17.89,16.83 6.24,6.79 11.96,3.32 18.62,0.54z"/>
   <polygon class="fil4" points="290.89,511.07 293.6,509.18 291.55,509.24 "/>
   <polygon class="fil5" points="72.68,443.52 70.78,441.22 "/>
   <polygon class="fil6" points="322.16,440.13 324.6,437.13 "/>
  </g>
 </g>
</svg>
